{"title":"Tower Heist 2011 TS READNFO XviD - MiSTERE","uid":6817387,"size":2927709307,"categoryP":"video","categoryS":"movies","magnet":"?xt=urn:btih:f1e5db6cd54f740303f96612564a832d140f492b&amp;dn=Tower+Heist+2011+TS+READNFO+XviD+-+MiSTERE&amp;tr=udp%3A%2F%2Ftracker.openbittorrent.com%3A80&amp;tr=udp%3A%2F%2Fopen.demonii.com%3A1337&amp;tr=udp%3A%2F%2Ftracker.coppersurfer.tk%3A6969&amp;tr=udp%3A%2F%2Fexodus.desync.com%3A6969","seeders":0,"leechers":0,"uploader":"TvTeam","files":102,"time":1321271038,"description":". \n &lt;a href=&quot;\nhttp://www.torrenting.com&quot; rel=&quot;nofollow&quot; target=&quot;_NEW&quot;&gt;\nhttp://www.torrenting.com&lt;/a&gt;          :     Once &amp; For all ;)\n\n\n               www . Torrenting . Com \n\n(((((((((((((= Enjoy No RAR releases =))))))))))))))))))))\n\n\n...................................NFO:....................................\n\n.Tower Heist 2011 TS READNFO XviD - MiSTERE &lt;a href=&quot;\nhttp://www.imdb.com/title/tt0471042/&quot; rel=&quot;nofollow&quot; target=&quot;_NEW&quot;&gt;\nhttp://www.imdb.com/title/tt0471042/&lt;/a&gt;\n\nSource: \n       V: German\n       A: Thanks\n\nVideo\nID                               : 0\nFormat                           : MPEG-4 Visual\nFormat profile                   : Advanced Simple@L5\nFormat settings, BVOP            : 2\nFormat settings, QPel            : No\nFormat settings, GMC             : No warppoints\nFormat settings, Matrix          : Default (H.263)\nCodec ID                         : XVID\nCodec ID/Hint                    : XviD\nDuration                         : 1h 38mn\nBit rate                         : 863 Kbps\nWidth                            : 720 pixels\nHeight                           : 288 pixels\nDisplay aspect ratio             : 2.500\nFrame rate                       : 23.976 fps\nColor space                      : YUV\nChroma subsampling               : 4:2:0\nBit depth                        : 8 bits\nScan type                        : Progressive\nCompression mode                 : Lossy\nBits/(Pixel*Frame)               : 0.174\nStream size                      : 610 MiB (86%)\nWriting library                  : XviD 1.1.0 Beta2 (UTC 2005-04-04)\n\nAudio\nID                               : 1\nFormat                           : MPEG Audio\nFormat version                   : Version 2\nFormat profile                   : Layer 3\nMode                             : Joint stereo\nMode extension                   : MS Stereo\nCodec ID                         : 55\nCodec ID/Hint                    : MP3\nDuration                         : 1h 38mn\nBit rate mode                    : Constant\nBit rate                         : 128 Kbps\nChannel(s)                       : 2 channels\nSampling rate                    : 24.0 KHz\nCompression mode                 : Lossy\nStream size                      : 90.4 MiB (13%)\nAlignment                        : Split accross interleaves\nInterleave, duration             : 42 ms (1.00 video frame)\n\n\nSharpened and Tweaked RGB\nNot the best LiNE hence the reason\nwe did the CAM also\nbut we had the audio so here the TS is\ntake it or leave it\n\n\n[IMG]http://i.imgur.com/1yngh.png[/IMG]\n[IMG]http://i.imgur.com/QFKOQ.png[/IMG]\n[IMG]http://i.imgur.com/K61OW.png[/IMG]\n[IMG]http://i.imgur.com/7h1LM.png[/IMG]\n[IMG]http://i.imgur.com/NhNvY.png[/IMG]","torrent":{"xt":"urn:btih:f1e5db6cd54f740303f96612564a832d140f492b","amp;dn":"Tower+Heist+2011+TS+READNFO+XviD+-+MiSTERE","amp;tr":["udp%3A%2F%2Ftracker.openbittorrent.com%3A80","udp%3A%2F%2Fopen.demonii.com%3A1337","udp%3A%2F%2Ftracker.coppersurfer.tk%3A6969","udp%3A%2F%2Fexodus.desync.com%3A6969"],"infoHash":"f1e5db6cd54f740303f96612564a832d140f492b","infoHashBuffer":{"type":"Buffer","data":[241,229,219,108,213,79,116,3,3,249,102,18,86,74,131,45,20,15,73,43]},"announce":[],"urlList":[]}}